<svg xmlns="http://www.w3.org/2000/svg" viewBox="0 0 20 20" data-v-255b77a2="" fill="#212529">
  <path
    d="M17.5 10.9167C17.4166 10.9167 17.25 11 17.1666 11.0834L16.3333 11.9167L18.0833 13.6667L18.9166 12.8334C19.0833 12.6667 19.0833 12.3334 18.9166 12.1667L17.8333 11.0834C17.75 11 17.6666 10.9167 17.5 10.9167ZM15.9166 12.4167L10.8333 17.4167V19.1667H12.5833L17.6666 14.0834L15.9166 12.4167ZM10.4166 5.83335V10.1667L13.75 12.1667L12.9166 13L9.16663 10.8334V5.83335H10.4166ZM9.24996 17.4167C9.24996 17.8631 8.86362 18.2151 8.42578 18.1278C4.57682 17.3602 1.66663 13.9711 1.66663 10C1.66663 5.41669 5.41663 1.66669 9.99996 1.66669C14.1317 1.66669 17.5341 4.65671 18.2288 8.59009C18.307 9.03276 17.9495 9.41669 17.5 9.41669V9.41669V9.41669C17.0272 9.41669 16.6383 9.05539 16.5355 8.59391C15.865 5.58138 13.2135 3.33335 9.99996 3.33335C6.33329 3.33335 3.33329 6.33335 3.33329 10C3.33329 13.1301 5.50138 15.7705 8.42799 16.4478C8.88888 16.5545 9.24996 16.9436 9.24996 17.4167V17.4167V17.4167Z">
  </path>
</svg>