<svg xmlns="http://www.w3.org/2000/svg" viewBox="0 0 20 20" data-v-255b77a2="" fill="#212529">
  <path d="M13.3852 15.3587H12.1904V18.2694H13.3852V15.3587Z"></path>
  <path d="M7.00149 4.16107H5.80676V9.6252H7.00149V4.16107Z"></path>
  <path
    d="M6.40411 8.68819H2.6208C2.29284 8.68819 2.02344 8.41879 2.02344 8.09082V4.72333H3.21817V7.49346H6.40411V8.68819Z">
  </path>
  <path d="M8.57104 6.10547H5.80676V7.3002H8.57104V6.10547Z"></path>
  <path d="M15.3587 6.10541H9.91211V7.30014H15.3587V6.10541Z"></path>
  <path d="M15.3587 8.38361H8.04395V9.57834H15.3587V8.38361Z"></path>
  <path d="M9.61347 10.6618H2V11.8565H9.61347V10.6618Z"></path>
  <path d="M9.61347 12.9341H2V14.1289H9.61347V12.9341Z"></path>
  <path d="M15.7335 15.2064H2V16.4012H15.7335V15.2064Z"></path>
  <path
    d="M14.3982 13.5022H11.2943C10.9663 13.5022 10.7028 13.2972 10.7028 13.0395V11.1889C10.7028 10.937 10.9663 10.7262 11.2943 10.7262H14.3982C14.7262 10.7262 14.9897 10.9312 14.9897 11.1889V13.0395C14.9897 13.2914 14.7262 13.5022 14.3982 13.5022ZM11.8799 12.5827H13.8009V11.6515H11.8799V12.5827Z">
  </path>
  <path
    d="M6.40401 5.16252C5.53139 5.16252 4.82275 4.45388 4.82275 3.58126C4.82275 2.70864 5.53139 2 6.40401 2C7.27663 2 7.98527 2.70864 7.98527 3.58126C7.98527 4.45388 7.27663 5.16252 6.40401 5.16252ZM6.40401 3.04832C6.11119 3.04832 5.87107 3.28843 5.87107 3.58126C5.87107 3.87408 6.11119 4.12006 6.40401 4.12006C6.69684 4.12006 6.93696 3.87994 6.93696 3.58126C6.93696 3.28258 6.69684 3.04832 6.40401 3.04832Z">
  </path>
  <path
    d="M16.4187 17.3851C15.546 17.3851 14.8374 16.6764 14.8374 15.8038C14.8374 14.9312 15.546 14.2225 16.4187 14.2225C17.2913 14.2225 17.9999 14.9312 17.9999 15.8038C17.9999 16.6764 17.2913 17.3851 16.4187 17.3851ZM16.4187 15.2708C16.1258 15.2708 15.8857 15.511 15.8857 15.8096C15.8857 16.1083 16.1258 16.3426 16.4187 16.3426C16.7115 16.3426 16.9516 16.1025 16.9516 15.8096C16.9516 15.5168 16.7115 15.2708 16.4187 15.2708Z">
  </path>
</svg>